<svg xmlns="http://www.w3.org/2000/svg" version="1.0" width="471" height="471" preserveAspectRatio="xMidYMid meet" style=""><rect id="backgroundrect" width="100%" height="100%" x="0" y="0" fill="none" stroke="none" class="" style=""/>
 <g class="currentLayer" style="">
  <title>Logo</title>
   <g id="layer101" fill="#de0065" stroke="none" class="">
   <path d="M220.8150085415691,470.63666833750904 c-1.5574032813310623,-0.14158211648464203 -6.30040418356657,-0.6371195241808892 -10.618658736348152,-0.9910748153924943 c-26.829811073839664,-2.6192691549658775 -54.721488021314144,-10.901822969317436 -80.41864216327667,-23.71500451117754 c-70.86184930056334,-35.60790229588747 -118.71660467237234,-103.63810926675797 -128.55656176805496,-182.9240944981575 c-1.6281943395733836,-13.23792789131403 -1.6281943395733836,-42.120679654181004 0,-55.35860754549503 c3.4687618538737297,-27.82088588923216 11.043405085802078,-53.02250262349844 23.502631336450577,-77.87016406655312 c35.60790229588747,-70.86184930056334 103.63810926675797,-118.71660467237234 182.9240944981575,-128.55656176805496 c13.23792789131403,-1.6281943395733836 42.120679654181004,-1.6281943395733836 55.35860754549503,0 c49.55374076962471,6.158822067081928 95.70951074361801,27.396139539778233 131.60057727247477,60.52635479718447 c41.69593330472708,38.51033568382263 67.81783379614353,89.40910656005144 74.82614856213331,145.9003710374236 c1.6281943395733836,13.23792789131403 1.6281943395733836,42.120679654181004 0,55.35860754549503 c-6.158822067081928,49.55374076962471 -27.396139539778233,95.70951074361801 -60.52635479718447,131.60057727247477 c-38.29796250909567,41.483560130000114 -89.76306185126305,67.95941591262817 -145.1924604550004,74.75535750389099 c-8.494926989078522,0.9910748153924943 -36.88214134424925,1.8405675143003464 -42.899381294846535,1.2742390483617783 zm38.43954462558031,-38.93508203327656 c36.45739499479532,-4.318254552781582 71.14501353353262,-18.972003608942032 100.31092952936888,-42.40384388715029 c31.077274568378925,-24.989243559539318 53.94278638064861,-59.039742574095726 65.41093781590462,-97.3377050831914 c9.344419687986374,-31.218856684863567 10.689449794590473,-65.62331099063158 3.893508203327656,-97.83324249088764 c-6.371195241808891,-30.156990811228752 -19.892287366092205,-58.6149962246418 -39.57220155745745,-83.03791131824255 c-24.989243559539318,-31.077274568378925 -59.039742574095726,-53.94278638064861 -97.3377050831914,-65.41093781590462 c-19.113585725426674,-5.663284659385681 -35.53711123764515,-7.999389581382275 -56.63284659385681,-7.999389581382275 c-21.095735356211662,0 -37.51926086843014,2.3361049219965935 -56.63284659385681,7.999389581382275 c-57.2699661180377,17.131436094641685 -103.425736092031,59.039742574095726 -126.71599425375462,114.96467858552933 c-14.299793764948845,34.475245364010334 -18.1933019682765,76.02959655225277 -10.618658736348152,114.39835011959076 c8.707300163805485,43.89045611023903 34.19208113104105,85.65718047320843 69.7291923686862,114.25676800310612 c33.059424199163914,26.54664684087038 72.06529729068279,41.34197801351547 115.38942493498325,43.81966505199671 c7.079105824232101,0.3539552912116051 23.573422394692898,-0.2831642329692841 32.77625996619463,-1.4158211648464203 z" id="svg_1"/>
   <path d="M210.90426038764417,358.6452141981572 c-12.459226250648499,-5.380120426416397 -25.980318374931812,-13.521092124283314 -36.74055922776461,-22.086810171604156 c-18.476466201245785,-14.65374905616045 -30.369363985955715,-31.785185150802135 -35.183155946433544,-50.47402452677488 c-3.6811350286006927,-14.512166939675808 -2.4776870384812355,-38.793499916791916 2.690060213208199,-53.09329368174076 c5.875657834112644,-16.423525512218475 13.096345774829388,-26.051109433174133 32.77625996619463,-43.678082935512066 c18.1933019682765,-16.281943395733833 24.847661443054676,-23.573422394692898 33.97970795631409,-37.16530557721853 c9.627583920955658,-14.441375881433487 17.980928793549538,-29.449080228805542 20.95415323972702,-37.87321615964174 c2.2653138637542725,-6.158822067081928 2.1237317472696304,-6.158822067081928 11.468151435256004,4.247463494539261 c10.618658736348152,11.82210672646761 20.670989006757736,29.024333879351616 25.555572025477886,43.607291877269745 c5.804866775870323,17.202227152884007 5.946448892354965,43.18254552781582 0.49553740769624716,67.46387850493193 c-0.8494926989078522,3.893508203327656 -1.3450301066040993,7.1498968824744225 -1.0618658736348152,7.1498968824744225 c0.2831642329692841,0 2.9732244461774826,-1.6281943395733836 6.017239950597286,-3.6811350286006927 c6.9375237077474585,-4.601418785750866 14.087420590221882,-11.326569318771362 18.618048317730427,-17.48539138585329 c4.105881378054619,-5.521702542901039 10.47707661986351,-18.1933019682765 13.804256357252598,-27.679303772747517 c1.3450301066040993,-3.6811350286006927 2.6192691549658775,-6.725150533020496 2.9732244461774826,-6.725150533020496 c0.9910748153924943,0 7.928598523139954,9.7691660374403 11.538942493498325,16.211152337491512 c6.017239950597286,10.901822969317436 10.264703445136547,23.573422394692898 12.954763658344746,38.651917800307274 c1.2034479901194572,6.866732649505138 1.2034479901194572,31.643603034317493 -0.07079105824232103,39.28903732448816 c-5.309329368174076,33.130215257406235 -23.290258161723614,63.28720606863499 -49.34136759489775,82.96712026000023 c-2.7608512714505196,2.0529406890273094 -5.238538309931755,3.7519260868430138 -5.59249360114336,3.7519260868430138 c-1.2034479901194572,0 -12.883972600102425,-11.326569318771362 -21.803645938634872,-21.02494429796934 c-10.335494503378868,-11.255778260529041 -17.34380926936865,-20.24624265730381 -21.59127276390791,-27.608512714505196 c-5.309329368174076,-9.13204651325941 -13.450301066040993,-28.811960704624653 -18.90121255069971,-45.51865044981241 c-1.0618658736348152,-3.3271797373890877 -2.1945228055119514,-6.30040418356657 -2.4776870384812355,-6.583568416535854 c-1.4866122230887413,-1.6989853978157043 -11.397360377013683,19.184376783668995 -13.804256357252598,29.23670705407858 c-4.389045611023903,17.839346677064896 2.7608512714505196,47.35921796411276 15.36165963858366,63.9951166510582 c5.380120426416397,7.00831476598978 5.734075717628002,7.5038521736860275 5.450911484658718,7.5038521736860275 c-0.14158211648464203,0 -3.7519260868430138,-1.5574032813310623 -8.070180639624596,-3.3979707956314087 z" id="svg_2"/>
  </g>
 </g>
</svg>
